<svg width="360" height="360" version="1.1" viewBox="0 0 95.249995 95.25001" xmlns="http://www.w3.org/2000/svg"><g transform="translate(-3.9687 -167.35)"><g transform="translate(-2.6458 -2.6458)"><g transform="translate(-14.552 -15.875)"><path transform="matrix(.26458 0 0 .26458 0 164.71)" d="m200 160-17 17 177 178-5 5-178-177-17 17 170 190 110 50-50-110z"/><g fill="#000007"><g fill="#000007"><path transform="matrix(.26458 0 0 .26458 0 164.71)" d="m105 80c-13.807-1e-6-25 11.193-25 25-1e-6 13.807 11.193 25 25 25 4.1724-.009 8.2762-1.0615 11.938-3.0625l38.062 38.062-40 40 15 15 90-90-15-15-40 40-38.045-38.045c1.9977-3.6681 3.0446-7.7783 3.0449-11.955 0-13.807-11.193-25-25-25z" fill="#000007"/></g></g></g><g transform="rotate(90 69.453 218.29)"><path transform="matrix(.26458 0 0 .26458 0 164.71)" d="m200 160-17 17 177 178-5 5-178-177-17 17 170 190 110 50-50-110z"/><g fill="#000007"><g fill="#000007"><path transform="matrix(.26458 0 0 .26458 0 164.71)" d="m105 80c-13.807-1e-6-25 11.193-25 25-1e-6 13.807 11.193 25 25 25 4.1724-.009 8.2762-1.0615 11.938-3.0625l38.062 38.062-40 40 15 15 90-90-15-15-40 40-38.045-38.045c1.9977-3.6681 3.0446-7.7783 3.0449-11.955 0-13.807-11.193-25-25-25z" fill="#000007"/></g></g></g></g></g></svg>
